REM DIRINDEX 1\2,1\3,1\4,1\5,1\6
REM DIRNAME cjc030,folder01,folder02,folder03,folder04,folder05
TITLE ""
FILE "Disc6Track41.mp3" MP3
  TRACK 01 AUDIO
    TITLE "2:cjc030_11572"
    INDEX 01 00:00:00
  TRACK 02 AUDIO
    TITLE "0:"
    INDEX 01 00:03:66
  TRACK 03 AUDIO
    TITLE "3:cjc030_11573"
    INDEX 01 00:04:38
  TRACK 04 AUDIO
    TITLE "0:"
    INDEX 01 00:05:44
  TRACK 05 AUDIO
    TITLE "4:cjc030_11574"
    INDEX 01 00:05:54
  TRACK 06 AUDIO
    TITLE "0:"
    INDEX 01 00:07:52
  TRACK 07 AUDIO
    TITLE "5:cjc030_11575"
    INDEX 01 00:07:56
  TRACK 08 AUDIO
    TITLE "0:"
    INDEX 01 00:08:72
  TRACK 09 AUDIO
    TITLE "6:cjc030_11576"
    INDEX 01 00:09:08
  TRACK 10 AUDIO
    TITLE "0:"
    INDEX 01 00:14:21
  TRACK 11 AUDIO
    TITLE "3:cjc030_11577"
    INDEX 01 00:14:68
  TRACK 12 AUDIO
    TITLE "0:"
    INDEX 01 00:16:08
  TRACK 13 AUDIO
    TITLE "4:cjc030_11578"
    INDEX 01 00:16:18
  TRACK 14 AUDIO
    TITLE "0:"
    INDEX 01 00:19:07
  TRACK 15 AUDIO
    TITLE "5:cjc030_11579"
    INDEX 01 00:19:20
  TRACK 16 AUDIO
    TITLE "0:"
    INDEX 01 00:20:32
  TRACK 17 AUDIO
    TITLE "6:cjc030_11580"
    INDEX 01 00:20:45
  TRACK 18 AUDIO
    TITLE "0:"
    INDEX 01 00:25:62
  TRACK 19 AUDIO
    TITLE "3:cjc030_11581"
    INDEX 01 00:26:36
  TRACK 20 AUDIO
    TITLE "0:"
    INDEX 01 00:27:53
  TRACK 21 AUDIO
    TITLE "4:cjc030_11582"
    INDEX 01 00:27:63
  TRACK 22 AUDIO
    TITLE "0:"
    INDEX 01 00:29:74
  TRACK 23 AUDIO
    TITLE "5:cjc030_11583"
    INDEX 01 00:30:06
  TRACK 24 AUDIO
    TITLE "0:"
    INDEX 01 00:31:24
  TRACK 25 AUDIO
    TITLE "6:cjc030_11584"
    INDEX 01 00:31:37
  TRACK 26 AUDIO
    TITLE "0:"
    INDEX 01 00:34:30
  TRACK 27 AUDIO
    TITLE "3:cjc030_11585"
    INDEX 01 00:35:04
  TRACK 28 AUDIO
    TITLE "0:"
    INDEX 01 00:36:19
  TRACK 29 AUDIO
    TITLE "4:cjc030_11586"
    INDEX 01 00:36:27
  TRACK 30 AUDIO
    TITLE "0:"
    INDEX 01 00:37:73
  TRACK 31 AUDIO
    TITLE "5:cjc030_11587"
    INDEX 01 00:38:06
  TRACK 32 AUDIO
    TITLE "0:"
    INDEX 01 00:39:21
  TRACK 33 AUDIO
    TITLE "6:cjc030_11588"
    INDEX 01 00:39:35
  TRACK 34 AUDIO
    TITLE "0:"
    INDEX 01 00:44:03
  TRACK 35 AUDIO
    TITLE "3:cjc030_11589"
    INDEX 01 00:44:50
  TRACK 36 AUDIO
    TITLE "0:"
    INDEX 01 00:45:65
  TRACK 37 AUDIO
    TITLE "4:cjc030_11590"
    INDEX 01 00:46:00
  TRACK 38 AUDIO
    TITLE "0:"
    INDEX 01 00:47:46
  TRACK 39 AUDIO
    TITLE "5:cjc030_11591"
    INDEX 01 00:47:54
  TRACK 40 AUDIO
    TITLE "0:"
    INDEX 01 00:48:69
  TRACK 41 AUDIO
    TITLE "6:cjc030_11592"
    INDEX 01 00:49:06
  TRACK 42 AUDIO
    TITLE "0:"
    INDEX 01 00:52:12
  TRACK 43 AUDIO
    TITLE "3:cjc030_11593"
    INDEX 01 00:52:57
  TRACK 44 AUDIO
    TITLE "0:"
    INDEX 01 00:54:01
  TRACK 45 AUDIO
    TITLE "4:cjc030_11594"
    INDEX 01 00:54:11
  TRACK 46 AUDIO
    TITLE "0:"
    INDEX 01 00:57:21
  TRACK 47 AUDIO
    TITLE "5:cjc030_11595"
    INDEX 01 00:57:33
  TRACK 48 AUDIO
    TITLE "0:"
    INDEX 01 00:58:50
  TRACK 49 AUDIO
    TITLE "6:cjc030_11596"
    INDEX 01 00:58:64
  TRACK 50 AUDIO
    TITLE "0:"
    INDEX 01 01:03:53
  TRACK 51 AUDIO
    TITLE "3:cjc030_11597"
    INDEX 01 01:04:27
  TRACK 52 AUDIO
    TITLE "0:"
    INDEX 01 01:05:40
  TRACK 53 AUDIO
    TITLE "4:cjc030_11598"
    INDEX 01 01:05:50
  TRACK 54 AUDIO
    TITLE "0:"
    INDEX 01 01:09:16
  TRACK 55 AUDIO
    TITLE "5:cjc030_11599"
    INDEX 01 01:09:24
  TRACK 56 AUDIO
    TITLE "0:"
    INDEX 01 01:10:41
  TRACK 57 AUDIO
    TITLE "6:cjc030_11600"
    INDEX 01 01:10:51
  TRACK 58 AUDIO
    TITLE "0:"
    INDEX 01 01:12:36
  TRACK 59 AUDIO
    TITLE "3:cjc030_11601"
    INDEX 01 01:13:10
  TRACK 60 AUDIO
    TITLE "0:"
    INDEX 01 01:14:27
  TRACK 61 AUDIO
    TITLE "4:cjc030_11602"
    INDEX 01 01:14:35
  TRACK 62 AUDIO
    TITLE "0:"
    INDEX 01 01:16:05
  TRACK 63 AUDIO
    TITLE "5:cjc030_11603"
    INDEX 01 01:16:14
  TRACK 64 AUDIO
    TITLE "0:"
    INDEX 01 01:17:33
  TRACK 65 AUDIO
    TITLE "6:cjc030_11604"
    INDEX 01 01:17:43
  TRACK 66 AUDIO
    TITLE "0:"
    INDEX 01 01:21:25
